<?xml version="1.0" standalone="no"?>
<!DOCTYPE svg PUBLIC "-//W3C//DTD SVG 20010904//EN"
 "http://www.w3.org/TR/2001/REC-SVG-20010904/DTD/svg10.dtd">
<svg version="1.0" xmlns="http://www.w3.org/2000/svg"
 width="304.000000pt" height="524.000000pt" viewBox="0 0 304.000000 524.000000"
 preserveAspectRatio="xMidYMid meet">

<g transform="translate(0.000000,524.000000) scale(0.100000,-0.100000)"
fill="#000000" stroke="none">
<path d="M240 4845 l0 -225 1300 0 1300 0 0 225 0 225 -1300 0 -1300 0 0 -225z
m2590 0 l0 -215 -1290 0 -1290 0 0 215 0 215 1290 0 1290 0 0 -215z"/>
<path d="M1580 4935 c0 -8 7 -15 15 -15 8 0 15 7 15 15 0 8 -7 15 -15 15 -8 0
-15 -7 -15 -15z"/>
<path d="M560 4860 c0 -64 3 -80 15 -80 10 0 15 10 15 30 0 25 4 30 23 30 49
0 77 69 38 90 -11 5 -36 10 -55 10 l-36 0 0 -80z m73 44 c11 -11 -5 -34 -24
-34 -12 0 -19 7 -19 20 0 19 28 28 43 14z"/>
<path d="M1980 4860 l0 -80 45 0 c33 0 45 4 45 15 0 10 -10 15 -30 15 l-30 0
0 65 c0 51 -3 65 -15 65 -12 0 -15 -16 -15 -80z"/>
<path d="M1277 4908 c-6 -24 5 -97 17 -116 10 -17 46 -15 46 2 0 8 -7 16 -15
20 -8 3 -15 17 -15 31 0 16 6 25 15 25 8 0 15 7 15 15 0 8 -7 15 -15 15 -8 0
-15 7 -15 15 0 24 -27 17 -33 -7z"/>
<path d="M1500 4915 c0 -8 -4 -15 -10 -15 -5 0 -10 -7 -10 -15 0 -8 4 -15 9
-15 6 0 11 -19 13 -42 3 -39 6 -43 31 -46 19 -2 27 1 27 12 0 9 -7 16 -15 16
-10 0 -15 10 -15 30 0 20 5 30 15 30 8 0 15 7 15 15 0 8 -7 15 -15 15 -8 0
-15 7 -15 15 0 8 -7 15 -15 15 -8 0 -15 -7 -15 -15z"/>
<path d="M690 4839 c0 -46 3 -59 15 -59 11 0 15 11 15 41 0 32 4 42 20 46 34
9 23 31 -15 31 l-35 0 0 -59z"/>
<path d="M798 4889 c-27 -15 -25 -85 2 -99 29 -16 74 -9 78 12 3 14 -3 16 -32
11 -24 -4 -36 -2 -36 6 0 6 16 11 35 11 30 0 35 3 35 23 0 42 -41 60 -82 36z
m52 -29 c0 -5 -9 -10 -20 -10 -11 0 -20 5 -20 10 0 6 9 10 20 10 11 0 20 -4
20 -10z"/>
<path d="M923 4894 c-14 -6 -18 -54 -5 -54 5 0 17 -7 28 -16 18 -15 18 -15 -9
-11 -22 3 -27 1 -25 -12 5 -23 58 -21 72 2 9 15 6 23 -19 44 -27 23 -28 25 -7
20 18 -4 22 -2 20 11 -3 17 -32 25 -55 16z"/>
<path d="M1026 4884 c-24 -23 -21 -81 4 -94 28 -15 74 -9 78 11 2 12 -4 15
-26 11 -16 -2 -33 1 -36 7 -5 7 7 11 33 11 33 0 41 4 41 18 0 43 -63 67 -94
36z m59 -24 c4 -6 -5 -10 -20 -10 -15 0 -24 4 -20 10 3 6 12 10 20 10 8 0 17
-4 20 -10z"/>
<path d="M1140 4839 c0 -45 3 -59 14 -59 10 0 16 14 18 43 2 34 7 42 23 42 16
0 21 -8 23 -42 2 -29 8 -43 18 -43 18 0 20 93 2 108 -7 5 -32 10 -55 9 l-43 0
0 -58z"/>
<path d="M1377 4893 c-17 -16 -5 -29 23 -25 18 3 30 0 30 -7 0 -6 -11 -11 -24
-11 -13 0 -29 -7 -37 -16 -21 -26 1 -49 50 -50 l41 -1 0 53 c0 38 -4 53 -16
58 -21 8 -59 8 -67 -1z m53 -73 c0 -5 -9 -10 -20 -10 -11 0 -20 5 -20 10 0 6
9 10 20 10 11 0 20 -4 20 -10z"/>
<path d="M1580 4840 c0 -47 3 -60 15 -60 12 0 15 13 15 60 0 47 -3 60 -15 60
-12 0 -15 -13 -15 -60z"/>
<path d="M1656 4884 c-9 -8 -16 -31 -16 -50 0 -27 5 -37 25 -46 60 -27 116 33
81 86 -19 30 -65 35 -90 10z m68 -29 c8 -23 -4 -45 -25 -45 -22 0 -34 22 -25
45 3 8 14 15 25 15 10 0 21 -7 25 -15z"/>
<path d="M1780 4839 c0 -45 3 -59 14 -59 10 0 16 14 18 43 2 34 7 42 23 42 16
0 21 -8 23 -42 2 -29 8 -43 18 -43 18 0 20 93 2 108 -7 5 -32 10 -55 9 l-43 0
0 -58z"/>
<path d="M2097 4893 c-17 -16 -5 -29 23 -25 18 3 30 0 30 -7 0 -6 -11 -11 -24
-11 -13 0 -29 -7 -37 -16 -21 -26 1 -49 50 -50 l41 -1 0 53 c0 38 -4 53 -16
58 -21 8 -59 8 -67 -1z m53 -73 c0 -5 -9 -10 -20 -10 -11 0 -20 5 -20 10 0 6
9 10 20 10 11 0 20 -4 20 -10z"/>
<path d="M2200 4893 c0 -5 9 -32 20 -61 12 -32 18 -63 14 -78 -5 -21 -3 -25
10 -22 12 2 26 28 42 72 28 81 29 96 9 96 -8 0 -15 -4 -15 -9 0 -5 -5 -22 -11
-38 l-11 -28 -15 38 c-8 20 -21 37 -29 37 -8 0 -14 -3 -14 -7z"/>
<path d="M2348 4889 c-27 -15 -25 -85 2 -99 29 -16 74 -9 78 12 3 14 -3 16
-32 11 -24 -4 -36 -2 -36 6 0 6 16 11 35 11 30 0 35 3 35 23 0 42 -41 60 -82
36z m52 -29 c0 -5 -9 -10 -20 -10 -11 0 -20 5 -20 10 0 6 9 10 20 10 11 0 20
-4 20 -10z"/>
<path d="M2460 4839 c0 -46 3 -59 15 -59 11 0 15 11 15 41 0 32 4 42 20 46 34
9 23 31 -15 31 l-35 0 0 -59z"/>
<path d="M1551 4543 c-9 -19 -9 -29 -2 -31 7 -2 11 -49 11 -133 0 -107 -2
-129 -15 -129 -13 0 -12 -5 2 -35 l17 -36 17 33 c14 28 15 34 3 36 -22 5 -21
262 1 262 14 0 14 3 0 30 -9 17 -17 30 -19 30 -1 0 -8 -12 -15 -27z"/>
<path d="M240 3945 l0 -205 1300 0 1300 0 0 205 0 205 -1300 0 -1300 0 0 -205z
m2590 0 l0 -195 -1290 0 -1290 0 0 195 0 195 1290 0 1290 0 0 -195z"/>
<path d="M1430 3950 c0 -73 3 -90 15 -90 12 0 15 17 15 90 0 73 -3 90 -15 90
-12 0 -15 -17 -15 -90z"/>
<path d="M1490 3950 c0 -73 3 -90 15 -90 12 0 15 17 15 90 0 73 -3 90 -15 90
-12 0 -15 -17 -15 -90z"/>
<path d="M721 4001 c-30 -30 -29 -104 1 -125 35 -25 98 -18 98 9 0 10 -10 12
-35 8 -30 -5 -36 -2 -46 21 -10 20 -10 32 0 52 10 22 17 25 42 22 23 -4 29 -1
27 11 -5 25 -63 26 -87 2z"/>
<path d="M1830 3940 l0 -80 45 0 c33 0 45 4 45 15 0 9 -9 15 -25 15 -24 0 -25
2 -25 65 0 58 -2 65 -20 65 -18 0 -20 -7 -20 -80z"/>
<path d="M1120 3995 c0 -8 -4 -15 -10 -15 -5 0 -10 -7 -10 -15 0 -8 4 -15 9
-15 6 0 11 -19 13 -42 3 -38 6 -43 27 -43 13 0 26 6 29 13 2 6 -3 12 -12 12
-11 0 -16 9 -16 30 0 20 5 30 15 30 8 0 15 7 15 15 0 8 -7 15 -15 15 -8 0 -15
7 -15 15 0 8 -7 15 -15 15 -8 0 -15 -7 -15 -15z"/>
<path d="M847 3962 c-37 -41 -11 -102 42 -102 52 0 82 68 45 104 -21 22 -67
20 -87 -2z m68 -42 c0 -18 -6 -26 -23 -28 -24 -4 -38 18 -28 44 3 9 15 14 28
12 17 -2 23 -10 23 -28z"/>
<path d="M970 3919 c0 -46 3 -59 15 -59 10 0 15 10 15 34 0 35 21 63 40 51 5
-3 10 -24 10 -46 0 -28 4 -39 15 -39 19 0 21 93 3 108 -7 5 -32 10 -55 9 l-43
0 0 -58z"/>
<path d="M1200 3918 c0 -45 3 -58 15 -58 11 0 15 11 15 41 0 32 4 42 20 46 34
9 23 31 -15 30 l-35 -1 0 -58z"/>
<path d="M1306 3967 c-13 -9 -17 -23 -14 -52 2 -33 8 -41 30 -49 18 -7 35 -6
53 2 21 10 25 18 25 51 0 30 -5 43 -19 51 -26 14 -54 13 -75 -3z m59 -47 c0
-16 -6 -26 -18 -28 -19 -4 -32 20 -23 44 9 25 41 13 41 -16z"/>
<path d="M1566 3964 c-24 -23 -21 -81 4 -94 28 -15 74 -9 78 11 2 12 -4 15
-26 11 -16 -2 -33 1 -36 7 -5 7 7 11 33 11 33 0 41 4 41 18 0 43 -63 67 -94
36z m59 -24 c4 -6 -5 -10 -20 -10 -15 0 -24 4 -20 10 3 6 12 10 20 10 8 0 17
-4 20 -10z"/>
<path d="M1680 3919 c0 -46 3 -59 15 -59 11 0 15 11 15 41 0 32 4 42 20 46 34
9 23 31 -15 31 l-35 0 0 -59z"/>
<path d="M1947 3973 c-18 -18 -6 -32 23 -26 17 3 30 1 30 -4 0 -6 -14 -13 -30
-17 -63 -12 -45 -67 21 -64 l39 1 0 53 c0 38 -4 53 -16 58 -21 8 -59 8 -67 -1z
m53 -73 c0 -5 -9 -10 -21 -10 -11 0 -17 5 -14 10 3 6 13 10 21 10 8 0 14 -4
14 -10z"/>
<path d="M2074 3917 c16 -43 21 -69 15 -85 -7 -17 -5 -22 9 -22 14 0 24 19 41
73 13 39 26 78 28 85 3 6 -2 12 -11 12 -9 0 -20 -16 -28 -41 l-12 -42 -18 42
c-9 22 -24 41 -33 41 -12 0 -11 -10 9 -63z"/>
<path d="M2197 3962 c-22 -24 -22 -66 -1 -87 21 -20 78 -16 82 6 2 12 -4 15
-26 11 -16 -2 -33 1 -36 7 -5 7 7 11 33 11 34 0 41 3 41 19 0 46 -62 67 -93
33z m58 -22 c4 -6 -5 -10 -20 -10 -15 0 -24 4 -20 10 3 6 12 10 20 10 8 0 17
-4 20 -10z"/>
<path d="M2310 3919 c0 -45 3 -59 14 -59 10 0 16 13 18 38 2 27 9 40 26 47 32
14 22 29 -21 32 l-37 2 0 -60z"/>
<path d="M1551 3633 c-9 -19 -9 -29 -2 -31 7 -2 11 -49 11 -133 0 -107 -2
-129 -15 -129 -13 0 -12 -5 2 -35 l17 -36 17 33 c14 28 15 34 3 36 -22 5 -21
262 1 262 14 0 14 3 0 30 -9 17 -17 30 -19 30 -1 0 -8 -12 -15 -27z"/>
<path d="M240 3015 l0 -215 1300 0 1300 0 0 215 0 215 -1300 0 -1300 0 0 -215z
m2590 0 l0 -205 -1290 0 -1290 0 0 205 0 205 1290 0 1290 0 0 -205z"/>
<path d="M1180 3095 c0 -8 7 -15 15 -15 8 0 15 7 15 15 0 8 -7 15 -15 15 -8 0
-15 -7 -15 -15z"/>
<path d="M800 3020 l0 -80 36 0 c51 0 74 15 74 50 0 17 -4 30 -10 30 -5 0 -7
13 -3 31 7 37 -6 49 -59 49 l-38 0 0 -80z m70 35 c0 -8 -9 -15 -20 -15 -11 0
-20 7 -20 15 0 8 9 15 20 15 11 0 20 -7 20 -15z m5 -65 c0 -8 -10 -16 -22 -18
-18 -3 -23 2 -23 18 0 16 5 21 23 18 12 -2 22 -10 22 -18z"/>
<path d="M1740 3020 l0 -80 45 0 c33 0 45 4 45 15 0 10 -10 15 -30 15 l-30 0
0 65 c0 51 -3 65 -15 65 -12 0 -15 -16 -15 -80z"/>
<path d="M940 3005 c0 -59 4 -62 73 -63 26 0 27 1 27 59 0 45 -3 59 -14 59
-10 0 -16 -14 -18 -42 -2 -31 -8 -44 -20 -46 -15 -3 -18 4 -18 42 0 34 -4 46
-15 46 -12 0 -15 -13 -15 -55z"/>
<path d="M1083 3054 c-7 -3 -13 -16 -13 -30 0 -17 7 -25 25 -30 14 -3 25 -11
25 -16 0 -6 -11 -8 -25 -6 -17 4 -25 1 -25 -9 0 -18 24 -27 55 -19 18 5 25 13
25 31 0 14 -4 25 -8 25 -5 0 -17 7 -28 16 -18 15 -18 15 9 9 24 -5 28 -3 25
12 -3 18 -40 27 -65 17z"/>
<path d="M1180 3000 c0 -47 3 -60 15 -60 12 0 15 13 15 60 0 47 -3 60 -15 60
-12 0 -15 -13 -15 -60z"/>
<path d="M1240 2998 c0 -45 3 -58 15 -58 11 0 15 11 15 40 0 28 5 43 16 47 21
8 34 -13 34 -54 0 -23 5 -33 15 -33 11 0 15 11 15 41 0 63 -12 78 -65 76 l-45
-2 0 -57z"/>
<path d="M1387 3042 c-22 -24 -22 -66 -1 -87 21 -20 78 -16 82 6 2 12 -4 15
-26 11 -16 -2 -33 1 -36 7 -5 7 7 11 33 11 34 0 41 3 41 19 0 46 -62 67 -93
33z m58 -22 c4 -6 -5 -10 -20 -10 -15 0 -24 4 -20 10 3 6 12 10 20 10 8 0 17
-4 20 -10z"/>
<path d="M1513 3054 c-7 -3 -13 -16 -13 -30 0 -17 7 -25 25 -30 14 -3 25 -11
25 -16 0 -6 -11 -8 -25 -6 -17 4 -25 1 -25 -9 0 -18 24 -27 55 -19 18 5 25 13
25 31 0 14 -4 25 -8 25 -5 0 -17 7 -28 16 -18 15 -18 15 9 9 24 -5 28 -3 25
12 -3 18 -40 27 -65 17z"/>
<path d="M1611 3046 c-17 -20 -7 -46 19 -53 29 -8 25 -26 -5 -21 -17 4 -25 1
-25 -9 0 -18 24 -27 55 -19 35 9 35 53 0 66 -33 12 -32 24 0 17 20 -3 25 -1
23 12 -4 21 -51 26 -67 7z"/>
<path d="M1857 3053 c-17 -16 -5 -29 23 -25 18 3 30 0 30 -7 0 -6 -11 -11 -24
-11 -13 0 -29 -7 -37 -16 -21 -26 1 -49 50 -50 l41 -1 0 53 c0 38 -4 53 -16
58 -21 8 -59 8 -67 -1z m53 -73 c0 -5 -9 -10 -20 -10 -11 0 -20 5 -20 10 0 6
9 10 20 10 11 0 20 -4 20 -10z"/>
<path d="M1960 3056 c0 -3 9 -29 21 -58 12 -32 18 -64 15 -81 -5 -23 -2 -28
10 -25 15 3 79 157 69 167 -11 10 -34 -11 -40 -38 -9 -40 -20 -39 -31 1 -6 18
-17 34 -27 36 -9 2 -17 1 -17 -2z"/>
<path d="M2106 3044 c-24 -23 -21 -81 4 -94 28 -15 74 -9 78 11 2 12 -4 15
-26 11 -16 -2 -33 1 -36 7 -5 7 7 11 33 11 33 0 41 4 41 18 0 43 -63 67 -94
36z m59 -24 c4 -6 -5 -10 -20 -10 -15 0 -24 4 -20 10 3 6 12 10 20 10 8 0 17
-4 20 -10z"/>
<path d="M2220 2999 c0 -45 3 -59 14 -59 10 0 16 13 18 38 2 27 9 40 26 47 32
14 22 29 -21 32 l-37 2 0 -60z"/>
<path d="M1551 2733 c-9 -19 -9 -29 -2 -31 7 -2 11 -49 11 -133 0 -107 -2
-129 -15 -129 -13 0 -12 -5 2 -35 l17 -36 17 33 c14 28 15 34 3 36 -22 5 -21
262 1 262 14 0 14 3 0 30 -9 17 -17 30 -19 30 -1 0 -8 -12 -15 -27z"/>
<path d="M240 2130 l0 -220 1300 0 1300 0 0 220 0 220 -1300 0 -1300 0 0 -220z
m2590 0 l0 -210 -1290 0 -1290 0 0 210 0 210 1290 0 1290 0 0 -210z"/>
<path d="M1550 2205 c0 -33 -2 -35 -25 -29 -35 9 -55 -11 -55 -56 0 -46 13
-58 68 -57 l42 0 0 88 c0 72 -3 89 -15 89 -10 0 -15 -11 -15 -35z m-5 -85 c0
-16 -6 -26 -18 -28 -19 -4 -32 20 -23 44 9 25 41 13 41 -16z"/>
<path d="M870 2140 c0 -64 3 -80 15 -80 10 0 15 10 15 30 0 19 5 30 14 30 7 0
19 -13 26 -30 8 -18 20 -30 31 -30 19 0 19 1 3 32 -13 24 -14 36 -5 50 26 43
-1 78 -60 78 l-39 0 0 -80z m73 44 c11 -11 -5 -34 -24 -34 -12 0 -19 7 -19 20
0 19 28 28 43 14z"/>
<path d="M1670 2140 l0 -80 45 0 c33 0 45 4 45 15 0 10 -10 15 -30 15 l-30 0
0 65 c0 51 -3 65 -15 65 -12 0 -15 -16 -15 -80z"/>
<path d="M1016 2158 c-40 -57 12 -117 78 -92 9 3 16 12 16 19 0 10 -10 12 -35
8 -23 -4 -35 -2 -35 6 0 6 16 11 35 11 31 0 35 3 35 25 0 45 -67 61 -94 23z
m64 -18 c0 -5 -9 -10 -20 -10 -11 0 -20 5 -20 10 0 6 9 10 20 10 11 0 20 -4
20 -10z"/>
<path d="M1147 2162 c-37 -41 -10 -106 42 -100 37 4 40 34 4 33 -23 0 -28 4
-28 25 0 21 5 25 28 25 20 -1 27 4 25 15 -5 23 -51 24 -71 2z"/>
<path d="M1256 2164 c-9 -8 -16 -31 -16 -50 0 -27 5 -37 25 -46 60 -27 116 33
81 86 -19 30 -65 35 -90 10z m68 -29 c8 -23 -4 -45 -25 -45 -22 0 -34 22 -25
45 3 8 14 15 25 15 10 0 21 -7 25 -15z"/>
<path d="M1380 2119 c0 -46 3 -59 15 -59 11 0 15 11 15 41 0 32 4 42 20 46 34
9 23 31 -15 31 l-35 0 0 -59z"/>
<path d="M1787 2173 c-17 -16 -5 -29 23 -25 18 3 30 0 30 -7 0 -6 -11 -11 -24
-11 -13 0 -29 -7 -37 -16 -21 -26 1 -49 50 -50 l41 -1 0 53 c0 38 -4 53 -16
58 -21 8 -59 8 -67 -1z m53 -73 c0 -5 -9 -10 -20 -10 -11 0 -20 5 -20 10 0 6
9 10 20 10 11 0 20 -4 20 -10z"/>
<path d="M1890 2173 c0 -5 9 -32 20 -61 12 -32 18 -63 14 -78 -5 -21 -3 -25
10 -22 12 2 26 28 42 72 28 81 29 96 9 96 -8 0 -15 -4 -15 -9 0 -5 -5 -22 -11
-38 l-11 -28 -15 38 c-8 20 -21 37 -29 37 -8 0 -14 -3 -14 -7z"/>
<path d="M2036 2164 c-24 -23 -21 -81 4 -94 28 -15 74 -9 78 11 2 12 -4 15
-26 11 -16 -2 -33 1 -36 7 -5 7 7 11 33 11 33 0 41 4 41 18 0 43 -63 67 -94
36z m59 -24 c4 -6 -5 -10 -20 -10 -15 0 -24 4 -20 10 3 6 12 10 20 10 8 0 17
-4 20 -10z"/>
<path d="M2150 2119 c0 -46 3 -59 15 -59 11 0 15 11 15 41 0 32 4 42 20 46 34
9 23 31 -15 31 l-35 0 0 -59z"/>
<path d="M1551 1823 c-9 -19 -9 -29 -2 -31 7 -2 11 -49 11 -133 0 -107 -2
-129 -15 -129 -13 0 -12 -5 2 -35 l17 -36 17 33 c14 28 15 34 3 36 -22 5 -21
262 1 262 14 0 14 3 0 30 -9 17 -17 30 -19 30 -1 0 -8 -12 -15 -27z"/>
<path d="M240 1225 l0 -215 1300 0 1300 0 0 215 0 215 -1300 0 -1300 0 0 -215z
m2590 0 l0 -205 -1290 0 -1290 0 0 205 0 205 1290 0 1290 0 0 -205z"/>
<path d="M610 1230 l0 -80 45 0 c59 0 85 25 85 80 0 55 -26 80 -85 80 l-45 0
0 -80z m88 38 c15 -15 15 -61 0 -76 -7 -7 -22 -12 -35 -12 -21 0 -23 4 -23 50
0 46 2 50 23 50 13 0 28 -5 35 -12z"/>
<path d="M1199 1283 c-41 -105 -48 -133 -33 -133 9 0 18 9 21 20 4 15 14 20
38 20 25 0 35 -5 40 -20 3 -11 13 -20 22 -20 18 0 14 19 -18 105 -24 63 -52
74 -70 28z m34 -61 c-21 -5 -25 2 -17 34 l7 29 13 -30 c10 -25 10 -31 -3 -33z"/>
<path d="M1930 1230 l0 -80 45 0 c33 0 45 4 45 15 0 10 -10 15 -30 15 l-30 0
0 65 c0 51 -3 65 -15 65 -12 0 -15 -16 -15 -80z"/>
<path d="M900 1285 c0 -8 -4 -15 -10 -15 -5 0 -10 -7 -10 -15 0 -8 4 -15 9
-15 6 0 11 -19 13 -42 3 -39 6 -43 31 -46 19 -2 27 1 27 12 0 9 -7 16 -15 16
-10 0 -15 10 -15 30 0 20 5 30 15 30 8 0 15 7 15 15 0 8 -7 15 -15 15 -8 0
-15 7 -15 15 0 8 -7 15 -15 15 -8 0 -15 -7 -15 -15z"/>
<path d="M777 1263 c-18 -18 -6 -32 23 -26 17 3 30 1 30 -4 0 -6 -14 -13 -30
-17 -63 -12 -45 -67 21 -64 l39 1 0 53 c0 38 -4 53 -16 58 -21 8 -59 8 -67 -1z
m53 -73 c0 -5 -9 -10 -21 -10 -11 0 -17 5 -14 10 3 6 13 10 21 10 8 0 14 -4
14 -10z"/>
<path d="M990 1255 c-13 -16 -10 -18 33 -15 15 1 27 -3 27 -9 0 -6 -9 -11 -19
-11 -34 0 -51 -12 -51 -35 0 -26 15 -33 68 -33 32 -1 32 0 32 47 0 26 -5 52
-12 59 -17 17 -63 15 -78 -3z m55 -65 c-3 -5 -13 -10 -21 -10 -8 0 -14 5 -14
10 0 6 9 10 21 10 11 0 17 -4 14 -10z"/>
<path d="M1338 1259 c-22 -13 -24 -81 -4 -98 21 -17 70 -10 74 11 3 13 -3 16
-25 15 -24 -2 -28 2 -28 23 0 20 5 25 25 25 15 0 25 6 25 15 0 18 -43 24 -67
9z"/>
<path d="M1436 1248 c-9 -12 -16 -29 -16 -38 0 -9 7 -26 16 -38 19 -27 67 -27
72 -1 2 12 -3 15 -21 12 -16 -3 -26 1 -30 11 -11 28 4 48 30 43 18 -3 23 0 21
12 -5 26 -53 26 -72 -1z"/>
<path d="M1547 1252 c-22 -24 -22 -66 -1 -87 21 -20 78 -16 82 6 2 12 -4 15
-26 11 -16 -2 -33 1 -36 7 -5 7 7 11 33 11 34 0 41 3 41 19 0 46 -62 67 -93
33z m58 -22 c4 -6 -5 -10 -20 -10 -15 0 -24 4 -20 10 3 6 12 10 20 10 8 0 17
-4 20 -10z"/>
<path d="M1673 1264 c-7 -3 -13 -16 -13 -30 0 -17 7 -25 25 -30 14 -3 25 -11
25 -16 0 -6 -11 -8 -25 -6 -17 4 -25 1 -25 -9 0 -18 24 -27 55 -19 18 5 25 13
25 31 0 14 -4 25 -8 25 -5 0 -17 7 -28 16 -18 15 -18 15 9 9 24 -5 28 -3 25
12 -3 18 -40 27 -65 17z"/>
<path d="M1771 1256 c-17 -20 -7 -46 19 -53 29 -8 25 -26 -5 -21 -17 4 -25 1
-25 -9 0 -18 24 -27 55 -19 35 9 35 53 0 66 -33 12 -32 24 0 17 20 -3 25 -1
23 12 -4 21 -51 26 -67 7z"/>
<path d="M2040 1255 c-13 -16 -10 -18 33 -15 15 1 27 -3 27 -9 0 -6 -9 -11
-19 -11 -34 0 -51 -12 -51 -35 0 -26 15 -33 68 -33 32 -1 32 0 32 47 0 26 -5
52 -12 59 -17 17 -63 15 -78 -3z m55 -65 c-3 -5 -13 -10 -21 -10 -8 0 -14 5
-14 10 0 6 9 10 21 10 11 0 17 -4 14 -10z"/>
<path d="M2150 1260 c0 -5 9 -33 20 -62 11 -28 17 -62 14 -75 -5 -16 -2 -23 9
-23 10 0 24 26 41 78 30 90 31 92 11 92 -8 0 -19 -17 -26 -42 l-12 -43 -14 43
c-8 23 -21 42 -29 42 -8 0 -14 -4 -14 -10z"/>
<path d="M2298 1259 c-27 -15 -25 -85 2 -99 29 -16 74 -9 78 12 3 14 -3 16
-32 11 -24 -4 -36 -2 -36 6 0 6 16 11 35 11 30 0 35 3 35 23 0 42 -41 60 -82
36z m52 -29 c0 -5 -9 -10 -20 -10 -11 0 -20 5 -20 10 0 6 9 10 20 10 11 0 20
-4 20 -10z"/>
<path d="M2410 1208 c0 -45 3 -58 15 -58 11 0 15 11 15 41 0 32 4 42 20 46 34
9 23 31 -15 30 l-35 -1 0 -58z"/>
<path d="M1551 953 c-9 -19 -9 -29 -2 -31 7 -2 11 -49 11 -133 0 -107 -2 -129
-15 -129 -13 0 -12 -5 2 -35 l17 -36 17 33 c14 28 15 34 3 36 -22 5 -21 262 1
262 14 0 14 3 0 30 -9 17 -17 30 -19 30 -1 0 -8 -12 -15 -27z"/>
<path d="M230 375 l0 -195 1310 0 1310 0 0 195 0 195 -1310 0 -1310 0 0 -195z
m2610 0 l0 -185 -1300 0 -1300 0 0 185 0 185 1300 0 1300 0 0 -185z"/>
<path d="M1240 371 l0 -88 43 0 c54 -1 67 11 67 57 0 45 -20 65 -55 56 -23 -6
-25 -4 -25 29 0 24 -5 35 -15 35 -12 0 -15 -17 -15 -89z m75 -31 c0 -16 -6
-26 -18 -28 -19 -4 -32 20 -23 44 9 25 41 13 41 -16z"/>
<path d="M740 360 l0 -80 44 0 c62 0 91 25 91 80 0 55 -29 80 -91 80 l-44 0 0
-80z m88 38 c15 -15 15 -61 0 -76 -7 -7 -22 -12 -35 -12 -21 0 -23 4 -23 50 0
46 2 50 23 50 13 0 28 -5 35 -12z"/>
<path d="M1800 360 l0 -80 40 0 c29 0 40 4 40 15 0 9 -9 15 -25 15 -24 0 -25
2 -25 65 0 51 -3 65 -15 65 -12 0 -15 -16 -15 -80z"/>
<path d="M1030 415 c0 -8 -4 -15 -10 -15 -5 0 -10 -7 -10 -15 0 -8 5 -15 10
-15 6 0 10 -15 10 -33 0 -37 15 -57 42 -57 22 0 24 26 3 34 -8 3 -15 17 -15
31 0 16 6 25 15 25 8 0 15 7 15 15 0 8 -7 15 -15 15 -8 0 -15 7 -15 15 0 8 -7
15 -15 15 -8 0 -15 -7 -15 -15z"/>
<path d="M907 393 c-18 -18 -6 -32 23 -26 17 3 30 1 30 -4 0 -6 -14 -13 -30
-17 -63 -12 -45 -67 21 -64 l39 1 0 53 c0 38 -4 53 -16 58 -21 8 -59 8 -67 -1z
m53 -73 c0 -5 -9 -10 -21 -10 -11 0 -17 5 -14 10 3 6 13 10 21 10 8 0 14 -4
14 -10z"/>
<path d="M1120 385 c-13 -16 -10 -18 33 -15 15 1 27 -3 27 -9 0 -6 -9 -11 -19
-11 -34 0 -51 -12 -51 -35 0 -26 15 -33 68 -33 32 -1 32 0 32 47 0 26 -5 52
-12 59 -17 17 -63 15 -78 -3z m55 -65 c-3 -5 -13 -10 -21 -10 -8 0 -14 5 -14
10 0 6 9 10 21 10 11 0 17 -4 14 -10z"/>
<path d="M1387 393 c-18 -18 -6 -32 23 -26 17 3 30 1 30 -4 0 -6 -14 -13 -30
-17 -63 -12 -45 -67 21 -64 l39 1 0 53 c0 38 -4 53 -16 58 -21 8 -59 8 -67 -1z
m53 -73 c0 -5 -9 -10 -21 -10 -11 0 -17 5 -14 10 3 6 13 10 21 10 8 0 14 -4
14 -10z"/>
<path d="M1513 394 c-7 -3 -13 -16 -13 -30 0 -17 7 -25 25 -30 14 -3 25 -11
25 -16 0 -6 -11 -8 -25 -6 -17 4 -25 1 -25 -9 0 -18 24 -27 55 -19 18 5 25 13
25 31 0 14 -4 25 -8 25 -5 0 -17 7 -28 16 -18 15 -18 15 9 9 24 -5 28 -3 25
12 -3 18 -40 27 -65 17z"/>
<path d="M1617 382 c-22 -24 -22 -66 -1 -87 21 -20 78 -16 82 6 2 12 -4 15
-26 11 -16 -2 -33 1 -36 7 -5 7 7 11 33 11 34 0 41 3 41 19 0 46 -62 67 -93
33z m58 -22 c4 -6 -5 -10 -20 -10 -15 0 -24 4 -20 10 3 6 12 10 20 10 8 0 17
-4 20 -10z"/>
<path d="M1913 393 c-7 -2 -13 -11 -13 -19 0 -10 8 -12 29 -8 16 4 32 1 35 -5
5 -7 -2 -11 -16 -11 -34 0 -50 -14 -46 -41 3 -21 9 -24 51 -26 l47 -2 0 48 c0
26 -5 52 -12 59 -12 12 -52 15 -75 5z m52 -73 c-3 -5 -13 -10 -21 -10 -8 0
-14 5 -14 10 0 6 9 10 21 10 11 0 17 -4 14 -10z"/>
<path d="M2033 338 c13 -35 21 -71 19 -80 -2 -11 2 -18 11 -18 10 0 23 24 38
68 12 37 24 73 27 80 2 6 -3 12 -12 12 -9 0 -20 -16 -28 -41 l-12 -42 -18 42
c-9 22 -24 41 -33 41 -12 0 -11 -10 8 -62z"/>
<path d="M2156 378 c-40 -57 12 -117 78 -92 9 3 16 12 16 19 0 10 -10 12 -35
8 -23 -4 -35 -2 -35 6 0 6 16 11 35 11 31 0 35 3 35 25 0 45 -67 61 -94 23z
m64 -18 c0 -5 -9 -10 -20 -10 -11 0 -20 5 -20 10 0 6 9 10 20 10 11 0 20 -4
20 -10z"/>
<path d="M2280 338 c0 -45 3 -58 15 -58 11 0 15 11 15 41 0 32 4 42 20 46 34
9 23 31 -15 30 l-35 -1 0 -58z"/>
</g>
</svg>
